# xmcd
#
# Track frame offsets:
#	150
#	22189
#	38505
#	56536
#	74125
#	92697
#	110296
#	124082
#	139751
#	153827
#	171248
#	187787
#	205044
#	228335
#	249497
#
# Disc length: 3604 seconds
#
# Revision: 0
# Processed by: cddbd v1.5.2PL0 Copyright (c) Steve Scherf et al.
# Submitted via: audiograbber 1.83.01
#
DISCID=c50e120f
DTITLE=Sound Choice - Country Hits - Vol. 151 SC8759
DYEAR=1900
DGENRE=Karaoke
TTITLE0=Martina McBride - Where Would You Be
TTITLE1=Leslie Satcher - The Slow Way Home
TTITLE2=George Jones - 50,000 Names
TTITLE3=Blake Shelton - Ol' Red
TTITLE4=Brett James - Chasin' Amy
TTITLE5=Darryl Worley - I Miss My Friend
TTITLE6=Little Big Town - Don't Waste My Time
TTITLE7=Kasey Chambers - Not Pretty Enough
TTITLE8=Mary Chapin Carpenter - My Dear Old Friend
TTITLE9=Jamie O'Neal and Michael McDonald - Not So Distant Day
TTITLE10=Tammy Cochran - I Believe
TTITLE11=Montgomery Gentry - Didn't I
TTITLE12=Johnny Cash and Dave Mathews - For You
TTITLE13=Rascal Flatts - The Glory Of Life
TTITLE14=Carolyn Dawn Johnson - Some Mother's Son
EXTD=
EXTT0=
EXTT1=
EXTT2=
EXTT3=
EXTT4=
EXTT5=
EXTT6=
EXTT7=
EXTT8=
EXTT9=
EXTT10=
EXTT11=
EXTT12=
EXTT13=
EXTT14=
PLAYORDER=
